<mxfile host="app.diagrams.net" modified="2024-06-26T21:12:19.360Z" agent="Mozilla/5.0 (Windows NT 10.0; Win64; x64) AppleWebKit/537.36 (KHTML, like Gecko) Chrome/126.0.0.0 Safari/537.36" etag="wGpc3DYcRkCgj1nJ0Cgq" version="24.6.3" type="device">
  <diagram name="Page-1" id="2YBvvXClWsGukQMizWep">
    <mxGraphModel dx="1290" dy="522" grid="1" gridSize="10" guides="1" tooltips="1" connect="1" arrows="1" fold="1" page="1" pageScale="1" pageWidth="850" pageHeight="1100" math="0" shadow="0">
      <root>
        <mxCell id="0" />
        <mxCell id="1" parent="0" />
        <mxCell id="HTtr2i45mUWM7pVpsKTv-1" value="&lt;font style=&quot;font-size: 14px;&quot;&gt;Diagrama de secuencia en el cual se le notifica el cambio de estado de la mascota a su dueño y doctor&lt;/font&gt;" style="text;html=1;align=center;verticalAlign=middle;whiteSpace=wrap;rounded=0;" vertex="1" parent="1">
          <mxGeometry x="10" y="20" width="400" height="30" as="geometry" />
        </mxCell>
        <mxCell id="HTtr2i45mUWM7pVpsKTv-2" value="perro:Perro" style="shape=umlLifeline;perimeter=lifelinePerimeter;whiteSpace=wrap;html=1;container=1;dropTarget=0;collapsible=0;recursiveResize=0;outlineConnect=0;portConstraint=eastwest;newEdgeStyle={&quot;curved&quot;:0,&quot;rounded&quot;:0};" vertex="1" parent="1">
          <mxGeometry x="50" y="70" width="100" height="360" as="geometry" />
        </mxCell>
        <mxCell id="HTtr2i45mUWM7pVpsKTv-5" value="" style="html=1;points=[[0,0,0,0,5],[0,1,0,0,-5],[1,0,0,0,5],[1,1,0,0,-5]];perimeter=orthogonalPerimeter;outlineConnect=0;targetShapes=umlLifeline;portConstraint=eastwest;newEdgeStyle={&quot;curved&quot;:0,&quot;rounded&quot;:0};" vertex="1" parent="HTtr2i45mUWM7pVpsKTv-2">
          <mxGeometry x="45" y="60" width="10" height="290" as="geometry" />
        </mxCell>
        <mxCell id="HTtr2i45mUWM7pVpsKTv-11" value="&lt;i&gt;cambiar estado&lt;/i&gt;" style="html=1;align=left;spacingLeft=2;endArrow=block;rounded=0;edgeStyle=orthogonalEdgeStyle;curved=0;rounded=0;" edge="1" target="HTtr2i45mUWM7pVpsKTv-5" parent="HTtr2i45mUWM7pVpsKTv-2" source="HTtr2i45mUWM7pVpsKTv-5">
          <mxGeometry relative="1" as="geometry">
            <mxPoint x="60" y="160" as="sourcePoint" />
            <Array as="points">
              <mxPoint x="80" y="160" />
              <mxPoint x="80" y="190" />
            </Array>
            <mxPoint x="65" y="190" as="targetPoint" />
          </mxGeometry>
        </mxCell>
        <mxCell id="HTtr2i45mUWM7pVpsKTv-3" value="dueño:Dueño" style="shape=umlLifeline;perimeter=lifelinePerimeter;whiteSpace=wrap;html=1;container=1;dropTarget=0;collapsible=0;recursiveResize=0;outlineConnect=0;portConstraint=eastwest;newEdgeStyle={&quot;curved&quot;:0,&quot;rounded&quot;:0};size=40;" vertex="1" parent="1">
          <mxGeometry x="176" y="70" width="100" height="360" as="geometry" />
        </mxCell>
        <mxCell id="HTtr2i45mUWM7pVpsKTv-6" value="" style="html=1;points=[[0,0,0,0,5],[0,1,0,0,-5],[1,0,0,0,5],[1,1,0,0,-5]];perimeter=orthogonalPerimeter;outlineConnect=0;targetShapes=umlLifeline;portConstraint=eastwest;newEdgeStyle={&quot;curved&quot;:0,&quot;rounded&quot;:0};" vertex="1" parent="HTtr2i45mUWM7pVpsKTv-3">
          <mxGeometry x="45" y="80" width="10" height="30" as="geometry" />
        </mxCell>
        <mxCell id="HTtr2i45mUWM7pVpsKTv-12" value="" style="html=1;points=[[0,0,0,0,5],[0,1,0,0,-5],[1,0,0,0,5],[1,1,0,0,-5]];perimeter=orthogonalPerimeter;outlineConnect=0;targetShapes=umlLifeline;portConstraint=eastwest;newEdgeStyle={&quot;curved&quot;:0,&quot;rounded&quot;:0};" vertex="1" parent="HTtr2i45mUWM7pVpsKTv-3">
          <mxGeometry x="45" y="210" width="10" height="50" as="geometry" />
        </mxCell>
        <mxCell id="HTtr2i45mUWM7pVpsKTv-4" value="doctor:Doctor" style="shape=umlLifeline;perimeter=lifelinePerimeter;whiteSpace=wrap;html=1;container=1;dropTarget=0;collapsible=0;recursiveResize=0;outlineConnect=0;portConstraint=eastwest;newEdgeStyle={&quot;curved&quot;:0,&quot;rounded&quot;:0};size=40;" vertex="1" parent="1">
          <mxGeometry x="300" y="70" width="100" height="360" as="geometry" />
        </mxCell>
        <mxCell id="HTtr2i45mUWM7pVpsKTv-7" value="" style="html=1;points=[[0,0,0,0,5],[0,1,0,0,-5],[1,0,0,0,5],[1,1,0,0,-5]];perimeter=orthogonalPerimeter;outlineConnect=0;targetShapes=umlLifeline;portConstraint=eastwest;newEdgeStyle={&quot;curved&quot;:0,&quot;rounded&quot;:0};" vertex="1" parent="HTtr2i45mUWM7pVpsKTv-4">
          <mxGeometry x="45" y="120" width="10" height="40" as="geometry" />
        </mxCell>
        <mxCell id="HTtr2i45mUWM7pVpsKTv-16" value="" style="html=1;points=[[0,0,0,0,5],[0,1,0,0,-5],[1,0,0,0,5],[1,1,0,0,-5]];perimeter=orthogonalPerimeter;outlineConnect=0;targetShapes=umlLifeline;portConstraint=eastwest;newEdgeStyle={&quot;curved&quot;:0,&quot;rounded&quot;:0};" vertex="1" parent="HTtr2i45mUWM7pVpsKTv-4">
          <mxGeometry x="45" y="280" width="10" height="50" as="geometry" />
        </mxCell>
        <mxCell id="HTtr2i45mUWM7pVpsKTv-17" value="notificar()" style="html=1;verticalAlign=bottom;endArrow=block;curved=0;rounded=0;" edge="1" parent="HTtr2i45mUWM7pVpsKTv-4" source="HTtr2i45mUWM7pVpsKTv-5">
          <mxGeometry width="80" relative="1" as="geometry">
            <mxPoint x="-71" y="288" as="sourcePoint" />
            <mxPoint x="45" y="288" as="targetPoint" />
          </mxGeometry>
        </mxCell>
        <mxCell id="HTtr2i45mUWM7pVpsKTv-18" value="update()" style="html=1;verticalAlign=bottom;endArrow=block;curved=0;rounded=0;" edge="1" parent="HTtr2i45mUWM7pVpsKTv-4" target="HTtr2i45mUWM7pVpsKTv-5">
          <mxGeometry width="80" relative="1" as="geometry">
            <mxPoint x="45" y="314" as="sourcePoint" />
            <mxPoint x="-71" y="314" as="targetPoint" />
          </mxGeometry>
        </mxCell>
        <mxCell id="HTtr2i45mUWM7pVpsKTv-8" value="registrar(IObserver)" style="html=1;verticalAlign=bottom;endArrow=block;curved=0;rounded=0;" edge="1" parent="1" target="HTtr2i45mUWM7pVpsKTv-6">
          <mxGeometry width="80" relative="1" as="geometry">
            <mxPoint x="105" y="159" as="sourcePoint" />
            <mxPoint x="215" y="159" as="targetPoint" />
          </mxGeometry>
        </mxCell>
        <mxCell id="HTtr2i45mUWM7pVpsKTv-9" value="registrar(IObserver)" style="html=1;verticalAlign=bottom;endArrow=block;curved=0;rounded=0;" edge="1" parent="1">
          <mxGeometry width="80" relative="1" as="geometry">
            <mxPoint x="105" y="202" as="sourcePoint" />
            <mxPoint x="345" y="202" as="targetPoint" />
          </mxGeometry>
        </mxCell>
        <mxCell id="HTtr2i45mUWM7pVpsKTv-13" value="notificar()" style="html=1;verticalAlign=bottom;endArrow=block;curved=0;rounded=0;" edge="1" parent="1">
          <mxGeometry width="80" relative="1" as="geometry">
            <mxPoint x="105" y="288" as="sourcePoint" />
            <mxPoint x="221" y="288" as="targetPoint" />
          </mxGeometry>
        </mxCell>
        <mxCell id="HTtr2i45mUWM7pVpsKTv-15" value="update()" style="html=1;verticalAlign=bottom;endArrow=block;curved=0;rounded=0;" edge="1" parent="1">
          <mxGeometry width="80" relative="1" as="geometry">
            <mxPoint x="221" y="314" as="sourcePoint" />
            <mxPoint x="105" y="314" as="targetPoint" />
          </mxGeometry>
        </mxCell>
      </root>
    </mxGraphModel>
  </diagram>
</mxfile>
